<svg    
        fill="#000000" 
        width="200px" 
        height="200px" 
        viewBox="0 0 24 24" 
        id="bottle-2" 
        data-name="Flat Line" 
        xmlns="http://www.w3.org/2000/svg" 
        class="icon flat-line">
            <path
                class="svgFill" 
                d="M14,7.59V4a1,1,0,0,0-1-1H11a1,1,0,0,0-1,1V7.59A3.41,3.41,0,0,1,9,10H9a3.41,3.41,0,0,0-1,2.41V20a1,1,0,0,0,1,1h6a1,1,0,0,0,1-1V12.41A3.41,3.41,0,0,0,15,10h0A3.41,3.41,0,0,1,14,7.59Z" 
                style="fill: #00FF00; stroke-width: 1;">
            </path>
            <path 
                class="svgStroke"
                d="M14,7.59V4a1,1,0,0,0-1-1H11a1,1,0,0,0-1,1V7.59A3.41,3.41,0,0,1,9,10H9a3.41,3.41,0,0,0-1,2.41V20a1,1,0,0,0,1,1h6a1,1,0,0,0,1-1V12.41A3.41,3.41,0,0,0,15,10h0A3.41,3.41,0,0,1,14,7.59Z" 
                style="fill: none; stroke: rgb(0, 0, 0); stroke-linecap: round; stroke-linejoin: round; stroke-width: .75;">
            </path>
</svg>